<svg width="24" height="24" viewBox="0 0 24 24" fill="none" xmlns="http://www.w3.org/2000/svg">
<path fill-rule="evenodd" clip-rule="evenodd" d="M7.51562 4.5H16.4844C18.15 4.5 19.5 5.86998 19.5 7.56025V16.4397C19.5 18.13 18.15 19.5 16.4844 19.5H7.51562C5.85 19.5 4.5 18.13 4.5 16.4397V7.56025C4.5 5.86998 5.85 4.5 7.51562 4.5ZM12 15.5835C13.9503 15.5835 15.5313 13.9791 15.5313 11.9999C15.5313 10.0208 13.9503 8.41643 12 8.41643C10.0498 8.41643 8.46878 10.0208 8.46878 11.9999C8.46878 13.9791 10.0498 15.5835 12 15.5835ZM15.8001 7.56019C15.8001 7.13842 16.1376 6.79592 16.5532 6.79592C16.9689 6.79592 17.3064 7.13842 17.3064 7.56019C17.3064 7.98197 16.9689 8.32446 16.5532 8.32446C16.1376 8.32446 15.8001 7.98197 15.8001 7.56019Z" fill="#FAFAFA"/>
</svg>
