<svg width="18" height="16" viewBox="0 0 18 16" fill="none" xmlns="http://www.w3.org/2000/svg">
<path fill-rule="evenodd" clip-rule="evenodd" d="M17.25 15.5H13.6031V10.2267C13.6031 8.84675 13.0331 7.90437 11.7784 7.90437C10.8191 7.90437 10.2855 8.54038 10.0372 9.15313C9.94387 9.37288 9.95851 9.67925 9.95851 9.98563V15.5H6.34575C6.34575 15.5 6.39225 6.15912 6.34575 5.31012H9.95851V6.9095C10.1723 6.21013 11.3265 5.21225 13.1685 5.21225C15.4541 5.21225 17.25 6.67775 17.25 9.83412V15.5ZM2.6925 4.0355H2.66888C1.50488 4.0355 0.75 3.25662 0.75 2.26925C0.75 1.26275 1.52701 0.5 2.71463 0.5C3.90113 0.5 4.63087 1.26087 4.65374 2.26625C4.65374 3.25362 3.90112 4.0355 2.6925 4.0355ZM1.16624 5.31012H4.38224V15.5H1.16624V5.31012Z" fill="#A81D1D"/>
</svg>
