<svg width="18" height="14" viewBox="0 0 18 14" fill="none" xmlns="http://www.w3.org/2000/svg">
<path fill-rule="evenodd" clip-rule="evenodd" d="M15.3009 2.3871C16.0091 1.96402 16.5386 1.29406 16.7889 0.504183C16.126 0.900062 15.4008 1.17888 14.6445 1.32857C13.6954 0.30751 12.2228 -0.025526 10.9312 0.488777C9.63964 1.00308 8.79159 2.26017 8.79276 3.65869C8.79016 3.91948 8.81646 4.17975 8.87117 4.43466C6.14944 4.30031 3.61352 3.00457 1.89877 0.872097C0.995238 2.42738 1.45038 4.42212 2.93748 5.42437C2.40226 5.40981 1.87835 5.26592 1.40991 5.00484V5.04195C1.41173 6.66322 2.54329 8.06066 4.1201 8.38893C3.8307 8.46574 3.53245 8.50346 3.23318 8.50111C3.01828 8.50493 2.8036 8.48542 2.59286 8.44291C3.04088 9.82818 4.30729 10.7788 5.75371 10.8155C4.55636 11.7584 3.0797 12.2699 1.55969 12.2683C1.28907 12.2701 1.01862 12.2544 0.75 12.2214C2.29674 13.225 4.09912 13.7559 5.93917 13.7499C12.1637 13.7499 15.567 8.55812 15.567 4.05781C15.567 3.90717 15.5618 3.76193 15.5546 3.61753C16.2218 3.13675 16.7963 2.53749 17.25 1.84915C16.6293 2.12175 15.9729 2.30292 15.3009 2.3871Z" fill="#A81D1D"/>
</svg>
