<svg width="24" height="24" viewBox="0 0 24 24" fill="none" xmlns="http://www.w3.org/2000/svg">
<path fill-rule="evenodd" clip-rule="evenodd" d="M12.0019 3.75H11.9977C8.89807 3.74886 6.05972 5.48668 4.65087 8.2482C3.24203 11.0097 3.50079 14.3282 5.32065 16.8379L4.29252 19.9031L7.46351 18.8894C10.4088 20.8301 14.2619 20.683 17.0507 18.5234C19.8395 16.3638 20.9469 12.6696 19.8061 9.33158C18.6654 5.99353 15.5288 3.7503 12.0019 3.75Z" stroke="#A81D1D" stroke-linecap="round" stroke-linejoin="round"/>
<path d="M16.3388 15.2937C16.1555 15.8498 15.4284 16.3109 14.8476 16.4456C14.4506 16.5364 13.932 16.6089 12.1863 15.8314C9.95326 14.8369 8.51535 12.4005 8.40333 12.2422C8.29532 12.0841 7.50099 10.9516 7.50099 9.78046C7.48103 9.02894 7.76425 8.30478 8.27788 7.79405C8.492 7.59247 8.77034 7.48754 9.05478 7.50118C9.14874 7.50118 9.2333 7.50632 9.30937 7.5103C9.53264 7.52057 9.64466 7.53483 9.79186 7.91321C9.97517 8.38757 10.4216 9.55887 10.4748 9.67919C10.5511 9.81228 10.5631 9.97666 10.507 10.1209C10.4446 10.2593 10.3615 10.3857 10.2611 10.4953C10.1491 10.634 10.0426 10.7401 9.93058 10.8891C9.82797 11.0187 9.71209 11.1574 9.84124 11.3971C10.1751 12.0074 10.5905 12.5619 11.0741 13.0428C11.5935 13.5533 12.198 13.9538 12.8559 14.2232C13.0349 14.3144 13.2476 14.2783 13.3917 14.1323C13.6034 13.8622 13.8016 13.58 13.9852 13.2871C14.0974 13.0861 14.3332 13.0093 14.5304 13.1096C14.7356 13.1861 15.8211 13.7626 16.0444 13.8819C16.2676 14.0012 16.4147 14.0594 16.4688 14.1604C16.523 14.2613 16.5221 14.7373 16.3388 15.2937Z" fill="#A81D1D"/>
</svg>
