<svg width="24" height="24" viewBox="0 0 24 24" fill="none" xmlns="http://www.w3.org/2000/svg">
<path fill-rule="evenodd" clip-rule="evenodd" d="M20.1045 6.25695C20.6438 6.83983 20.82 8.16204 20.82 8.16204C20.82 8.16204 21 9.71572 21 11.2686V12.725C21 14.2787 20.82 15.8312 20.82 15.8312C20.82 15.8312 20.6441 17.1538 20.1045 17.7363C19.4874 18.4255 18.8036 18.4965 18.4171 18.5366C18.3747 18.541 18.3359 18.545 18.3011 18.5495C15.7822 18.744 12 18.75 12 18.75C12 18.75 7.32 18.7043 5.88 18.557C5.81179 18.5434 5.72911 18.5329 5.63549 18.5209C5.17941 18.4625 4.46356 18.3708 3.89512 17.7363C3.3555 17.1538 3.18 15.8312 3.18 15.8312C3.18 15.8312 3 14.2783 3 12.725V11.2686C3 9.71572 3.18 8.16204 3.18 8.16204C3.18 8.16204 3.3555 6.83943 3.89512 6.25695C4.51363 5.56657 5.19847 5.49652 5.58487 5.457C5.62649 5.45274 5.66464 5.44884 5.69888 5.44455C8.21775 5.25 11.9959 5.25 11.9959 5.25H12.0041C12.0041 5.25 15.7822 5.25001 18.3011 5.44417C18.3356 5.44853 18.3741 5.4525 18.4161 5.45683C18.8025 5.49666 19.4869 5.56722 20.1045 6.25695ZM9.00086 14.4776C9.00094 15.0489 9.61435 15.4104 10.1142 15.1336L14.5691 12.6667C15.0838 12.3816 15.0848 11.6419 14.5709 11.3554L10.1154 8.87174C9.6154 8.59305 9.0001 8.95455 9.00018 9.52694L9.00086 14.4776Z" fill="#FAFAFA"/>
</svg>
