<svg width="82" height="38" viewBox="0 0 82 38" fill="none" xmlns="http://www.w3.org/2000/svg">
<path d="M60.1453 19.6585C60.1138 19.8725 60.1278 20.0375 60.1278 20.2024C60.1278 23.7256 60.1243 27.2489 60.1313 30.7721C60.1313 31.6003 60.0472 32.4144 59.76 33.1899C58.786 35.8078 56.9397 37.415 54.1824 37.8992C51.2886 38.4081 48.3912 36.9447 46.9898 34.5234C45.2871 31.5827 43.5809 28.642 41.8748 25.7048C40.7957 23.8449 39.7131 21.9816 38.634 20.1217C38.55 19.9778 38.4624 19.841 38.3748 19.7006C38.2487 19.7673 38.2942 19.862 38.2872 19.9357C38.2802 20.0199 38.2837 20.1076 38.2837 20.1919C38.2837 23.5256 38.2837 26.8628 38.2837 30.1966C38.2837 31.0704 38.1996 31.9371 37.9894 32.7864C37.8808 33.218 37.7407 33.6391 37.555 34.0426C36.7001 35.906 35.2357 37.0395 33.2807 37.5624C32.5205 37.7659 31.7392 37.8606 30.9509 37.8606C26.8694 37.8641 22.7878 37.8992 18.7098 37.8536C9.78295 37.7519 2.50624 31.5757 0.526779 23.3712C0.0713274 21.4832 -0.0968361 19.5637 0.0538132 17.6196C0.442698 12.5804 2.49223 8.34836 6.1954 4.93041C8.70739 2.61083 11.6608 1.11592 15.0101 0.410569C16.2679 0.14738 17.5361 0.00701452 18.8184 0.00701452C20.7138 0.0105237 22.6092 0.00701452 24.5045 0.00701452C24.6237 0.00701452 24.7428 0.00701024 24.8619 0.0245562C24.9004 0.0280654 24.946 0.0807028 24.96 0.122813C24.9775 0.185978 24.9705 0.259677 24.9705 0.326352C24.9705 1.65984 24.9705 2.99333 24.9705 4.32683C24.9705 4.3935 24.974 4.46369 24.9635 4.53036C24.953 4.60406 24.9004 4.64967 24.8269 4.65318C24.6727 4.6602 24.5186 4.66371 24.3679 4.66371C22.6092 4.66371 20.8504 4.66371 19.0917 4.66371C16.9651 4.66371 14.912 5.03919 12.9886 5.96211C8.64082 8.05008 5.95716 11.468 4.92013 16.1844C3.50123 23.7537 8.09778 30.5896 14.877 32.6004C16.0927 32.9618 17.3364 33.1653 18.6082 33.1689C22.6372 33.1724 26.6662 33.1583 30.6952 33.1794C31.9284 33.1864 33.2142 32.26 33.526 30.9335C33.561 30.7861 33.582 30.6317 33.5925 30.4773C33.6066 30.2562 33.6031 30.0316 33.6031 29.8106C33.6031 22.3711 33.6031 14.9316 33.6031 7.49211C33.6031 7.30261 33.5925 7.11312 33.6171 6.92714C33.6731 6.46392 34.0095 6.0744 34.4299 5.96912C34.8958 5.85332 35.3548 6.02878 35.6351 6.44287C35.7121 6.55516 35.7752 6.67799 35.8418 6.7973C40.652 15.1035 45.4623 23.4098 50.2726 31.716C50.3566 31.8634 50.4407 32.0143 50.5283 32.1582C51.1695 33.2285 52.4587 33.6496 53.4888 33.3654C54.5994 33.0601 55.3981 32.095 55.4752 30.9054C55.4857 30.7194 55.4822 30.5299 55.4822 30.3404C55.4822 22.729 55.4822 15.1211 55.4822 7.50966C55.4822 7.32017 55.4787 7.13417 55.4927 6.94468C55.5313 6.47445 55.8466 6.09195 56.281 5.97264C56.719 5.85332 57.1884 6.01474 57.4617 6.38672C57.5633 6.52358 57.6439 6.67448 57.728 6.82187C62.5522 15.1597 67.3765 23.4975 72.2008 31.8354C72.2779 31.9687 72.3514 32.1056 72.4355 32.2319C73.0767 33.2145 74.2468 33.6566 75.3854 33.3513C76.489 33.053 77.2878 32.0319 77.3299 30.8633C77.3369 30.6738 77.3334 30.4878 77.3334 30.2983C77.3334 20.413 77.3334 10.5276 77.3334 0.642177C77.3334 0.487773 77.3369 0.333366 77.3334 0.178961C77.3334 0.0491214 77.4035 1.24432e-10 77.5226 1.24432e-10C77.6067 1.24432e-10 77.6942 1.24432e-10 77.7783 1.24432e-10C79.0431 1.24432e-10 80.3043 1.24432e-10 81.5691 1.24432e-10C81.6532 1.24432e-10 81.7407 -7.28217e-06 81.8248 0.00350191C81.9194 0.0070111 81.986 0.0526314 81.9895 0.157907C81.993 0.27722 81.9965 0.396539 81.9965 0.515851C81.9965 10.5732 81.993 20.627 82 30.6844C82 32.2705 81.6111 33.7303 80.6757 35.0217C79.5301 36.6008 77.9955 37.5659 76.0651 37.8922C73.0977 38.394 70.1968 36.871 68.8059 34.4497C66.0557 29.6667 63.2739 24.9047 60.5027 20.1322C60.4081 19.9883 60.3521 19.8059 60.1453 19.6585Z" fill="black"/>
<path d="M49.2996 18.2395C49.2996 18.0713 49.2996 17.9067 49.2996 17.7385C49.2996 14.2036 49.3031 10.6687 49.2996 7.13734C49.2996 6.11436 49.4829 5.13342 49.9166 4.20503C50.978 1.93836 52.7552 0.547526 55.2235 0.109607C58.2207 -0.422903 61.1121 1.05551 62.519 3.45881C64.0529 6.08283 65.5903 8.70684 67.1277 11.3309C68.3971 13.4994 69.663 15.668 70.9324 17.8331C71.017 17.9767 71.1052 18.1168 71.1898 18.25C71.3132 18.2255 71.2885 18.1449 71.2885 18.0853C71.2956 17.9312 71.292 17.777 71.292 17.6229C71.292 12.007 71.292 6.38761 71.292 0.771735C71.292 0.095588 71.1968 0.172665 71.8915 0.172665C73.0763 0.169161 74.2611 0.172665 75.4494 0.172665C75.5869 0.172665 75.7244 0.176168 75.8619 0.183174C75.936 0.186678 75.9889 0.23222 75.9924 0.312797C75.9994 0.431911 75.9994 0.551032 75.9994 0.670146C75.9994 10.6407 75.9994 20.6112 75.9994 30.5818C75.9994 30.7009 76.003 30.82 75.9924 30.9391C75.9465 31.4646 75.6327 31.843 75.1355 31.9656C74.6665 32.0812 74.2258 31.9025 73.9402 31.4716C73.845 31.328 73.7639 31.1809 73.6757 31.0337C68.8555 22.7693 64.0353 14.5049 59.215 6.24048C59.1128 6.06181 59.0141 5.88313 58.8977 5.71147C58.3547 4.90219 57.3427 4.33466 56.0592 4.60091C55.0119 4.81812 54.1938 5.72898 54.0281 6.80451C53.9858 7.07777 53.9858 7.34754 53.9858 7.6208C53.9858 15.2196 53.9858 22.8148 53.9858 30.4136C53.9858 30.6028 53.9928 30.7885 53.9787 30.9777C53.94 31.4821 53.6367 31.8395 53.1501 31.9621C52.6988 32.0777 52.2545 31.9131 51.9794 31.5242C51.8807 31.3841 51.7996 31.2334 51.715 31.0863C47.4766 23.8273 43.2417 16.5684 39.0033 9.30941C38.3474 8.18834 37.6915 7.07077 37.0427 5.94269C36.6654 5.29107 36.133 4.83212 35.3996 4.63594C33.6259 4.16649 32.1203 5.4312 32.0004 6.99019C31.9863 7.19338 31.9898 7.40008 31.9898 7.60328C31.9898 15.0304 31.9898 22.4575 31.9898 29.8846C31.9898 30.0388 31.9792 30.1929 31.9898 30.3471C32.0356 30.9707 31.415 31.7589 30.5758 31.7379C29.786 31.7169 28.9961 31.7344 28.2063 31.7344C25.0609 31.7344 21.9156 31.7344 18.7739 31.7344C13.4882 31.7344 8.93595 28.5393 6.99658 23.9604C6.21026 22.1037 5.88232 20.1628 6.03747 18.1554C6.49587 12.1296 10.9529 7.79597 15.9424 6.71343C16.7675 6.53476 17.5961 6.41214 18.4424 6.41214C20.4523 6.40864 22.4622 6.40863 24.4721 6.40863C24.5567 6.40863 24.6449 6.41213 24.7295 6.41914C24.8035 6.42615 24.8564 6.46819 24.8635 6.54176C24.8741 6.62584 24.8705 6.71343 24.8705 6.79751C24.8705 8.09375 24.8705 9.39349 24.8705 10.6897C24.8705 10.7563 24.867 10.8264 24.867 10.8929C24.8635 10.998 24.7965 11.0401 24.7013 11.0436C24.5638 11.0471 24.4262 11.0471 24.2887 11.0471C22.4516 11.0471 20.611 11.0366 18.7739 11.0506C17.0813 11.0646 15.5228 11.5411 14.1441 12.5325C12.2858 13.8673 11.1715 15.6645 10.8295 17.9242C10.223 21.953 12.8288 25.9468 17.106 26.8927C17.7125 27.0259 18.3296 27.0644 18.9502 27.0644C21.2175 27.0644 23.4848 27.0644 25.7556 27.0644C25.9284 27.0644 26.1012 27.0574 26.2704 27.0329C26.7676 26.9593 27.1449 26.6055 27.2613 26.1185C27.3177 25.8838 27.3141 25.6456 27.3141 25.4038C27.3141 21.1017 27.3141 16.7996 27.3141 12.4975C27.3141 10.7213 27.3177 8.94507 27.3141 7.17237C27.3106 6.18793 27.4658 5.23151 27.8713 4.33115C28.9185 1.9909 30.7169 0.547523 33.2486 0.1061C36.2846 -0.42641 39.1655 1.09755 40.5689 3.51136C42.7586 7.27747 44.966 11.0331 47.1663 14.7957C47.7798 15.8432 48.3898 16.8907 49.0034 17.9347C49.0704 18.0503 49.1479 18.1589 49.2185 18.271C49.2361 18.2605 49.2678 18.25 49.2996 18.2395Z" fill="black"/>
</svg>
